<?xml version="1.0" encoding="UTF-8"?>
<svg id="Layer_2" data-name="Layer 2" xmlns="http://www.w3.org/2000/svg" viewBox="0 0 1086.92 232.65">
  <path d="M82.41,46.76c.72,11.52,5.4,27.72,17.28,51.3,10.26,20.34,17.82,35.64,20.7,45.36,11.7-22.86,25.92-51.84,33.12-69.48,3.24-7.92,4.5-14.76,4.5-19.44,0-2.16-.18-4.86-.72-7.74h36.54v6.84c-9.54.72-14.04,4.5-14.04,13.14,0,2.7.36,5.94.72,8.82l9,69.12c1.62,12.42,7.38,16.74,18.72,18v6.84h-54.36v-6.84c10.98,0,15.84-5.94,15.84-14.94,0-4.68-3.42-31.32-8.46-73.44h-.36c-4.5,13.68-12.42,31.32-23.4,52.2-10.98,20.88-16.74,34.74-18.36,43.02h-8.46c-1.44-9.18-7.74-23.76-19.44-46.8-11.88-23.4-19.44-39.96-22.86-51.3h-.36l-9.18,63.9c-.72,4.32-.9,8.28-.9,10.44,0,11.34,4.68,16.02,16.74,16.92v6.84h-42.12v-6.84c10.26,0,14.94-5.22,16.92-18.36l10.26-66.96c.54-3.06.72-6.3.72-9,0-9.54-3.96-14.04-13.86-14.76v-6.84h35.82Z"/>
  <path d="M350.78,107.78c0,37.44-29.52,63.9-65.88,63.9s-61.38-26.1-61.38-60.66c0-42.3,29.7-66.42,63.72-66.42,36.18,0,63.54,27.72,63.54,63.18ZM288.69,163.93c24.3,0,40.32-18.36,40.32-48.06,0-38.34-19.26-63.54-45.18-63.54-21.78,0-38.52,17.64-38.52,48.42,0,35.82,18,63.18,43.38,63.18Z"/>
  <path d="M394.35,46.76l91.98,93.24v-58.86c0-15.84-4.68-27.54-21.42-27.54v-6.84h48.42v6.84c-12.96,0-19.26,10.62-19.26,27v58.14c0,15.12,4.14,25.56,4.14,32.22h-11.88c-8.64-11.34-9.9-12.96-14.94-18l-73.98-75.78v63.18c0,14.4,6.3,22.32,21.96,22.32v6.84h-51.48v-6.84c16.92,0,21.78-6.12,21.78-18.18v-75.6l-9.36-9.18c-3.6-3.42-8.64-5.58-15.12-6.12v-6.84h29.16Z"/>
  <path d="M656.24,107.78c0,37.44-29.52,63.9-65.88,63.9s-61.38-26.1-61.38-60.66c0-42.3,29.7-66.42,63.72-66.42,36.18,0,63.54,27.72,63.54,63.18ZM594.14,163.93c24.3,0,40.32-18.36,40.32-48.06,0-38.34-19.26-63.54-45.18-63.54-21.78,0-38.52,17.64-38.52,48.42,0,35.82,18,63.18,43.38,63.18Z"/>
  <path d="M793.94,53.06l4.32,28.62h-5.76c-8.28-18-24.84-29.34-42.66-29.34-24.66,0-47.52,18.72-47.52,53.82,0,31.68,18.18,57.78,50.04,57.78,20.88,0,35.82-10.62,40.14-30.24h6.66l-.9,28.26c-12.24,5.04-33.84,9.72-48.96,9.72-39.6,0-68.76-25.02-68.76-61.2s28.26-65.88,70.92-65.88c13.5,0,27.36,2.88,42.48,8.46Z"/>
  <path d="M877.1,46.76v6.84c-14.04,0-20.34,5.04-20.34,16.74v68.4c0,16.02,7.02,23.04,23.04,23.04h17.64c15.3,0,26.1-7.2,34.38-22.32h7.56l-7.56,30.06h-114.29v-6.84c15.48-1.08,20.34-3.96,20.34-19.8v-71.82c0-13.14-6.3-17.46-20.34-17.46v-6.84h59.58Z"/>
  <path d="M1047.74,46.76v27.36h-6.48c-5.76-14.58-13.68-19.62-29.7-19.62h-29.7v47.16h25.02c15.84,0,22.32-4.32,23.22-17.28h7.38v43.38h-7.38c-1.98-13.5-8.46-18.36-23.04-18.36h-25.2v30.42c0,4.5.36,11.52,3.24,15.66,4.5,6.3,12.24,6.3,22.32,6.3h7.74c3.06,0,10.8-.9,15.84-2.88,8.28-3.24,13.86-9.9,18.36-19.44h8.1l-8.1,30.06h-105.66v-6.84c14.22,0,19.26-5.94,19.26-17.82v-73.44c0-12.06-5.58-17.82-19.26-17.82v-6.84h104.04Z"/>
</svg>