<?xml version="1.0" encoding="UTF-8"?>
<svg id="Layer_1" data-name="Layer 1" xmlns="http://www.w3.org/2000/svg" viewBox="0 0 1086.92 232.65">
  <g>
    <path d="M58.43,172.92l2.17,14.41h-2.9c-4.17-9.06-12.51-14.77-21.48-14.77-12.42,0-23.93,9.43-23.93,27.1,0,15.95,9.15,29.09,25.2,29.09,10.51,0,18.04-5.35,20.21-15.23h3.35l-.45,14.23c-6.16,2.54-17.04,4.89-24.65,4.89-19.94,0-34.62-12.6-34.62-30.82s14.23-33.17,35.71-33.17c6.8,0,13.78,1.45,21.39,4.26Z"/>
    <path d="M135.38,200.47c0,18.85-14.86,32.18-33.17,32.18s-30.91-13.14-30.91-30.54c0-21.3,14.96-33.45,32.09-33.45,18.22,0,32,13.96,32,31.81ZM104.11,228.75c12.24,0,20.3-9.25,20.3-24.2,0-19.31-9.7-32-22.75-32-10.97,0-19.4,8.88-19.4,24.38,0,18.04,9.06,31.81,21.84,31.81Z"/>
    <path d="M167.28,169.74c.36,5.8,2.72,13.96,8.7,25.83,5.17,10.24,8.97,17.95,10.42,22.84,5.89-11.51,13.05-26.1,16.68-34.99,1.63-3.99,2.27-7.43,2.27-9.79,0-1.09-.09-2.45-.36-3.9h18.4v3.44c-4.8.36-7.07,2.27-7.07,6.62,0,1.36.18,2.99.36,4.44l4.53,34.8c.82,6.25,3.72,8.43,9.43,9.06v3.44h-27.37v-3.44c5.53,0,7.98-2.99,7.98-7.52,0-2.36-1.72-15.77-4.26-36.98h-.18c-2.27,6.89-6.25,15.77-11.78,26.29-5.53,10.51-8.43,17.49-9.25,21.66h-4.26c-.73-4.62-3.9-11.96-9.79-23.57-5.98-11.78-9.79-20.12-11.51-25.83h-.18l-4.62,32.18c-.36,2.18-.45,4.17-.45,5.26,0,5.71,2.36,8.07,8.43,8.52v3.44h-21.21v-3.44c5.17,0,7.52-2.63,8.52-9.25l5.17-33.72c.27-1.54.36-3.17.36-4.53,0-4.8-1.99-7.07-6.98-7.43v-3.44h18.04Z"/>
    <path d="M266.61,169.74c11.42,0,20.3,6.25,20.3,16.41s-8.88,17.58-22.57,17.58c-4.08,0-6.34-.91-6.34-2.63,0-1.09.82-1.9,2.36-1.9.63,0,1.81.09,2.27.09,8.07,0,13.32-4.89,13.32-12.15,0-9.52-5.53-13.5-14.59-13.5h-7.89v45.41c0,6.62,2.81,9.06,10.42,9.06v3.44h-29.19v-3.44c6.62,0,9.24-2.54,9.24-9.06v-37.71c0-4.99-2.72-8.16-9.24-8.16v-3.44h31.9Z"/>
    <path d="M358.15,200.47c0,18.85-14.86,32.18-33.17,32.18s-30.91-13.14-30.91-30.54c0-21.3,14.96-33.45,32.09-33.45,18.22,0,32,13.96,32,31.81ZM326.88,228.75c12.24,0,20.3-9.25,20.3-24.2,0-19.31-9.7-32-22.75-32-10.97,0-19.4,8.88-19.4,24.38,0,18.04,9.06,31.81,21.84,31.81Z"/>
    <path d="M378.26,169.74l46.32,46.95v-29.64c0-7.98-2.36-13.87-10.79-13.87v-3.44h24.38v3.44c-6.53,0-9.7,5.35-9.7,13.6v29.28c0,7.61,2.08,12.87,2.08,16.22h-5.98c-4.35-5.71-4.98-6.53-7.52-9.06l-37.25-38.16v31.81c0,7.25,3.17,11.24,11.06,11.24v3.44h-25.92v-3.44c8.52,0,10.97-3.08,10.97-9.15v-38.07l-4.71-4.62c-1.81-1.72-4.35-2.81-7.61-3.08v-3.44h14.68Z"/>
    <path d="M494.18,169.74v13.78h-3.26c-2.9-7.34-6.89-9.88-14.96-9.88h-14.96v23.75h12.6c7.98,0,11.24-2.18,11.69-8.7h3.72v21.84h-3.72c-1-6.8-4.26-9.25-11.6-9.25h-12.69v15.32c0,2.27.18,5.8,1.63,7.89,2.27,3.17,6.16,3.17,11.24,3.17h3.9c1.54,0,5.44-.45,7.98-1.45,4.17-1.63,6.98-4.98,9.25-9.79h4.08l-4.08,15.14h-53.2v-3.44c7.16,0,9.7-2.99,9.7-8.97v-36.98c0-6.07-2.81-8.97-9.7-8.97v-3.44h52.39Z"/>
    <path d="M516.11,169.74l46.32,46.95v-29.64c0-7.98-2.36-13.87-10.79-13.87v-3.44h24.38v3.44c-6.53,0-9.7,5.35-9.7,13.6v29.28c0,7.61,2.08,12.87,2.08,16.22h-5.98c-4.35-5.71-4.99-6.53-7.52-9.06l-37.25-38.16v31.81c0,7.25,3.17,11.24,11.06,11.24v3.44h-25.92v-3.44c8.52,0,10.97-3.08,10.97-9.15v-38.07l-4.71-4.62c-1.81-1.72-4.35-2.81-7.61-3.08v-3.44h14.68Z"/>
    <path d="M643.99,169.74l1,14.68h-3.08c-5.26-9.25-7.98-10.79-15.14-10.79h-10.24v45.95c0,5.89,2.81,8.52,9.79,8.52v3.44h-29.09v-3.44c6.98,0,9.79-2.54,9.79-9.06v-45.41h-10.24c-7.43,0-10.24,1.81-15.14,10.79h-3.08l.91-14.68h64.53Z"/>
    <path d="M703.35,169.74v3.44c-7.07,0-10.24,2.54-10.24,8.43v34.44c0,8.07,3.54,11.6,11.6,11.6h8.88c7.7,0,13.14-3.63,17.31-11.24h3.81l-3.81,15.14h-57.55v-3.44c7.79-.54,10.24-1.99,10.24-9.97v-36.16c0-6.62-3.17-8.79-10.24-8.79v-3.44h30Z"/>
    <path d="M764.26,169.74v3.44c-6.98,0-9.7,2.9-9.7,9.06v36.98c0,6.07,2.81,8.88,9.7,8.88v3.44h-29.09v-3.44c7.16,0,9.88-1.99,9.88-9.97v-35.62c0-6.62-2.54-9.34-9.88-9.34v-3.44h29.09Z"/>
    <path d="M802.96,169.74c11.96,0,19.4,5.35,19.4,14.96,0,8.25-5.62,12.51-18.4,14.41v.18c14.5.36,20.85,7.52,20.85,15.77,0,10.51-10.15,16.5-20.3,16.5h-34.8v-3.44c6.62,0,9.61-2.63,9.61-9.06v-37.34c0-5.44-2.45-8.52-9.61-8.52v-3.44h33.26ZM797.88,197.12c9.43,0,13.51-2.99,13.51-10.97,0-8.61-5.98-12.51-15.05-12.51h-7.52v23.47h9.06ZM788.82,218.78c0,5.53,2.9,8.88,8.34,8.88h5.17c6.53,0,11.51-4.35,11.51-11.96,0-8.52-6.34-14.32-15.5-14.32h-9.52v17.4Z"/>
    <path d="M862.59,169.74c14.14,0,22.57,5.71,22.57,15.95,0,7.89-6.25,13.78-16.86,15.5l11.33,12.96c8.88,10.15,13.23,13.96,16.68,13.96v3.44h-7.07c-6.07,0-8.7-1.09-16.59-10.88l-12.51-15.59c-1.72-2.08-2.81-2.72-7.79-2.72h-1.27v17.49c0,5.17,2.63,8.25,9.52,8.25v3.44h-28.19v-3.44c6.07,0,9.15-2.36,9.15-9.97v-36.35c0-5.44-2.54-8.61-9.15-8.61v-3.44h30.18ZM859.96,198.48c9.15,0,14.23-3.99,14.23-11.69s-6.25-13.14-15.68-13.14h-7.43v24.83h8.88Z"/>
    <path d="M929.75,169.74l22.48,52.3c1.9,4.35,3.62,6.07,6.89,6.07v3.44h-25.38v-3.44c5.35-.45,7.61-2.54,7.61-5.71,0-1.18-.36-2.54-1.09-4.26l-4.44-10.7h-23.93l-3.35,8.79c-.72,1.99-.82,3.44-.82,4.8,0,3.99,2.81,6.8,7.61,7.07v3.44h-20.85v-3.44c4.71-1.27,5.89-2.99,9.06-10.79l17.95-44.68-1.45-2.9h9.7ZM913.8,202.55h19.94l-10.24-24.56-9.7,24.56Z"/>
    <path d="M992.92,169.74c14.14,0,22.57,5.71,22.57,15.95,0,7.89-6.25,13.78-16.86,15.5l11.33,12.96c8.88,10.15,13.23,13.96,16.68,13.96v3.44h-7.07c-6.07,0-8.7-1.09-16.59-10.88l-12.51-15.59c-1.72-2.08-2.81-2.72-7.79-2.72h-1.27v17.49c0,5.17,2.63,8.25,9.52,8.25v3.44h-28.19v-3.44c6.07,0,9.15-2.36,9.15-9.97v-36.35c0-5.44-2.54-8.61-9.15-8.61v-3.44h30.18ZM990.29,198.48c9.15,0,14.23-3.99,14.23-11.69s-6.25-13.14-15.68-13.14h-7.43v24.83h8.88Z"/>
    <path d="M1048.84,169.74v3.44c-4.8,0-7.07,1.45-7.07,3.81,0,1.27.45,2.45,1.54,3.99l13.5,19.76h.18l10.42-15.32c1.27-1.9,2.45-4.26,2.45-6.53,0-3.35-2.45-5.53-6.8-5.71v-3.44h22.3v3.44c-3.72.63-5.53,1.9-10.6,9.06l-16.41,23.38v14.05c0,5.35,2.9,8.43,9.06,8.43v3.44h-27.83v-3.44c6.07,0,9.25-2.72,9.25-8.43v-14.05l-19.12-28.01c-1.81-2.63-4.08-4.08-8.07-4.44v-3.44h27.19Z"/>
  </g>
  <g>
    <path d="M54.02,2.34c.78,12.48,5.85,30.03,18.72,55.58,11.12,22.04,19.31,38.61,22.43,49.14,12.68-24.77,28.08-56.16,35.88-75.27,3.51-8.58,4.88-15.99,4.88-21.06,0-2.34-.2-5.27-.78-8.39h39.59v7.41c-10.33.78-15.21,4.88-15.21,14.24,0,2.93.39,6.44.78,9.56l9.75,74.88c1.75,13.46,8,18.14,20.28,19.5v7.41h-58.89v-7.41c11.9,0,17.16-6.44,17.16-16.19,0-5.07-3.71-33.93-9.17-79.56h-.39c-4.88,14.82-13.46,33.93-25.35,56.55s-18.14,37.64-19.89,46.61h-9.17c-1.56-9.95-8.39-25.74-21.06-50.7-12.87-25.35-21.06-43.29-24.77-55.58h-.39l-9.95,69.23c-.78,4.68-.98,8.97-.98,11.31,0,12.29,5.07,17.36,18.14,18.33v7.41H0v-7.41c11.12,0,16.19-5.66,18.33-19.89l11.12-72.54c.58-3.31.78-6.83.78-9.75,0-10.34-4.29-15.21-15.02-15.99V2.34h38.81Z"/>
    <path d="M340.86,68.45c0,40.56-31.98,69.23-71.37,69.23s-66.5-28.28-66.5-65.72C202.99,26.13,235.17,0,272.03,0c39.2,0,68.84,30.03,68.84,68.45ZM273.59,129.29c26.33,0,43.68-19.89,43.68-52.07,0-41.54-20.87-68.84-48.95-68.84-23.6,0-41.73,19.11-41.73,52.46,0,38.81,19.5,68.45,47,68.45Z"/>
    <path d="M384.15,2.34l99.65,101.01v-63.77c0-17.16-5.07-29.84-23.21-29.84V2.34h52.46v7.41c-14.04,0-20.87,11.51-20.87,29.25v62.99c0,16.38,4.49,27.69,4.49,34.91h-12.87c-9.36-12.29-10.73-14.04-16.19-19.5l-80.15-82.1v68.45c0,15.6,6.83,24.18,23.79,24.18v7.41h-55.77v-7.41c18.33,0,23.6-6.63,23.6-19.7V26.33l-10.14-9.95c-3.9-3.71-9.36-6.04-16.38-6.63V2.34h31.59Z"/>
    <path d="M663.98,68.45c0,40.56-31.98,69.23-71.37,69.23s-66.5-28.28-66.5-65.72c0-45.83,32.18-71.96,69.03-71.96,39.2,0,68.84,30.03,68.84,68.45ZM596.7,129.29c26.33,0,43.68-19.89,43.68-52.07,0-41.54-20.87-68.84-48.95-68.84-23.6,0-41.73,19.11-41.73,52.46,0,38.81,19.5,68.45,47,68.45Z"/>
    <path d="M809.25,9.17l4.68,31.01h-6.24c-8.97-19.5-26.91-31.79-46.22-31.79-26.72,0-51.48,20.28-51.48,58.31,0,34.32,19.7,62.6,54.21,62.6,22.62,0,38.81-11.51,43.49-32.76h7.22l-.98,30.62c-13.26,5.46-36.66,10.53-53.04,10.53-42.9,0-74.49-27.11-74.49-66.3S717.01,0,763.23,0c14.63,0,29.64,3.12,46.02,9.17Z"/>
    <path d="M895.43,2.34v7.41c-15.21,0-22.04,5.46-22.04,18.14v74.1c0,17.36,7.61,24.96,24.96,24.96h19.11c16.58,0,28.28-7.8,37.25-24.18h8.19l-8.19,32.57h-123.83v-7.41c16.77-1.17,22.04-4.29,22.04-21.45V28.67c0-14.24-6.83-18.92-22.04-18.92V2.34h64.55Z"/>
    <path d="M1076.39,2.34v29.64h-7.02c-6.24-15.8-14.82-21.26-32.18-21.26h-32.18v51.09h27.11c17.16,0,24.18-4.68,25.16-18.72h8v47h-8c-2.15-14.63-9.17-19.89-24.96-19.89h-27.3v32.96c0,4.88.39,12.48,3.51,16.96,4.88,6.83,13.26,6.83,24.18,6.83h8.39c3.31,0,11.7-.97,17.16-3.12,8.97-3.51,15.02-10.72,19.89-21.06h8.78l-8.78,32.57h-114.47v-7.41c15.41,0,20.87-6.44,20.87-19.31V29.06c0-13.07-6.04-19.31-20.87-19.31V2.34h112.71Z"/>
  </g>
</svg>